<?xml version="1.0" standalone="no"?>
<!DOCTYPE svg PUBLIC "-//W3C//DTD SVG 20010904//EN"
 "http://www.w3.org/TR/2001/REC-SVG-20010904/DTD/svg10.dtd">
<svg version="1.0" xmlns="http://www.w3.org/2000/svg"
 width="768.000000pt" height="768.000000pt" viewBox="0 0 768.000000 768.000000"
 preserveAspectRatio="xMidYMid meet">
<metadata>
Created by potrace 1.14, written by Peter Selinger 2001-2017
</metadata>
<g transform="translate(0.000000,768.000000) scale(0.100000,-0.100000)"
fill="#000000" stroke="none">
<path d="M3759 7668 c-1 -7 0 -17 1 -23 2 -10 0 -82 -5 -220 -6 -132 -24 -384
-30 -425 -2 -14 -7 -54 -10 -90 -3 -36 -8 -76 -10 -90 -2 -14 -7 -47 -10 -75
-3 -27 -7 -61 -10 -75 -3 -14 -8 -41 -11 -60 -9 -61 -11 -73 -28 -160 -23
-122 -22 -116 -50 -236 -48 -199 -117 -414 -186 -579 -57 -134 -134 -289 -191
-384 -22 -34 -39 -65 -39 -67 0 -8 -124 -179 -132 -182 -4 -2 -8 -10 -8 -17 0
-7 -3 -15 -7 -17 -5 -1 -30 -30 -57 -63 -39 -48 -214 -225 -286 -289 -105 -94
-344 -249 -508 -330 -157 -77 -460 -189 -565 -210 -12 -2 -50 -12 -84 -21 -35
-9 -72 -18 -84 -20 -11 -2 -28 -6 -37 -9 -9 -3 -35 -8 -57 -11 -23 -3 -52 -8
-65 -11 -14 -3 -36 -7 -50 -9 -14 -2 -41 -7 -60 -10 -49 -10 -97 -16 -245 -30
-38 -3 -81 -8 -95 -11 -22 -3 -259 -17 -317 -18 -22 0 -23 -4 -23 -86 l0 -86
53 -1 c57 -1 232 -12 287 -18 19 -2 62 -6 95 -9 33 -3 76 -8 95 -11 19 -2 55
-6 80 -9 25 -3 56 -7 70 -10 14 -3 41 -7 60 -10 36 -6 47 -8 135 -26 49 -10
74 -15 125 -26 14 -3 30 -7 35 -8 6 -1 21 -5 35 -9 14 -4 43 -13 65 -19 52
-14 166 -48 185 -55 8 -3 20 -7 25 -8 62 -15 460 -194 475 -215 3 -3 13 -9 23
-13 18 -7 183 -114 203 -132 6 -5 22 -17 34 -25 62 -41 143 -113 265 -235 101
-102 225 -247 225 -264 0 -5 4 -11 8 -13 9 -3 99 -135 132 -192 11 -20 30 -53
42 -74 42 -73 121 -239 164 -344 40 -97 121 -328 129 -370 2 -9 13 -51 25 -93
12 -42 23 -84 25 -93 2 -9 9 -39 15 -67 6 -27 14 -60 16 -72 2 -13 6 -33 8
-45 24 -119 35 -179 40 -213 3 -22 8 -51 10 -65 6 -35 16 -108 21 -161 3 -24
7 -62 10 -84 10 -82 14 -122 20 -200 3 -44 8 -105 10 -135 5 -59 17 -331 17
-392 l0 -38 87 0 86 0 2 103 c2 121 17 408 28 517 17 168 31 285 35 285 1 0 3
20 5 45 3 46 13 113 20 140 2 8 7 35 10 60 4 25 16 88 27 140 11 52 22 104 24
115 2 16 37 150 69 265 22 83 57 185 66 196 6 8 9 14 6 14 -7 0 33 109 64 177
10 23 19 44 19 47 0 4 92 194 127 261 31 58 126 210 134 213 5 2 9 10 9 18 0
8 5 14 10 14 6 0 10 5 10 10 0 33 287 352 405 450 96 81 248 190 264 190 5 0
11 4 13 8 3 9 166 103 219 127 19 8 41 19 49 24 48 29 398 163 440 169 3 0 12
3 20 5 25 8 143 38 165 42 11 2 43 9 70 15 66 15 76 17 121 24 22 3 50 8 64
11 58 12 78 15 130 22 30 4 70 7 88 7 17 1 32 3 32 6 0 3 15 6 33 7 17 1 64 4
102 7 99 8 282 19 333 19 l42 0 0 87 0 87 -52 0 c-81 0 -353 17 -438 28 -25 3
-65 8 -90 11 -25 3 -85 12 -135 20 -49 8 -106 17 -125 20 -19 2 -93 19 -165
35 -71 17 -134 32 -140 33 -5 1 -14 4 -20 8 -5 3 -26 9 -45 13 -19 4 -41 12
-47 17 -7 6 -13 8 -13 5 0 -6 -169 52 -230 79 -19 8 -53 23 -74 32 -117 50
-309 156 -401 220 -57 40 -158 114 -165 122 -3 3 -23 20 -45 39 -99 83 -247
236 -316 326 -13 17 -26 32 -30 35 -14 12 -159 233 -200 306 -47 83 -125 241
-154 309 -9 22 -21 48 -26 57 -5 10 -9 22 -9 28 0 6 -8 29 -19 53 -24 53 -53
141 -81 237 -11 41 -23 80 -24 85 -2 6 -4 13 -5 17 -1 4 -9 31 -17 60 -9 28
-17 60 -19 71 -3 10 -7 28 -11 40 -4 12 -9 31 -10 42 -4 29 -11 64 -23 115 -5
25 -12 59 -15 75 -3 17 -12 73 -21 125 -9 52 -18 111 -20 131 -2 20 -6 50 -9
65 -3 16 -8 56 -12 89 -3 33 -7 74 -9 90 -19 176 -34 413 -39 605 l-2 105 -87
3 c-65 2 -87 0 -88 -10z"/>
</g>
</svg>
